<svg width="32" height="32" viewBox="0 0 32 32" fill="none" xmlns="http://www.w3.org/2000/svg">
<path fill-rule="evenodd" clip-rule="evenodd" d="M21.5533 2.93135C21.758 3.02535 21.946 3.14668 22.1107 3.28935C21.2882 3.69065 20.4592 4.07848 19.624 4.45268C18.8762 4.79005 18.1174 5.10222 17.3487 5.38868C17.0027 5.51402 16.6987 5.61335 16.45 5.67935C16.1833 5.75002 16.0433 5.76602 16 5.76602C15.9567 5.76602 15.8167 5.75002 15.5507 5.67935C15.3013 5.61268 14.9973 5.51402 14.6513 5.38868C13.8829 5.10221 13.1242 4.79003 12.3767 4.45268C11.541 4.07952 10.712 3.69168 9.89 3.28935C10.0547 3.14668 10.242 3.02535 10.4473 2.93135C11.9247 2.25202 14.5193 1.16602 16 1.16602C17.48 1.16602 20.0753 2.25268 21.5533 2.93135ZM17 15.0487V7.60202C17.3482 7.50493 17.6922 7.39373 18.0313 7.26868C18.844 6.96619 19.6462 6.63645 20.4367 6.28002C21.2597 5.91251 22.0765 5.53112 22.8867 5.13602C22.9487 5.87602 23 6.87735 23 8.16602C23 9.73802 22.924 10.8813 22.8447 11.646C22.7633 12.426 22.2647 13.0733 21.5527 13.4007C20.3693 13.9447 18.47 14.7493 17 15.0487ZM10.4467 13.4007C9.73533 13.074 9.23667 12.4253 9.15533 11.646C9.076 10.8813 9 9.73802 9 8.16602C9 6.87668 9.05133 5.87668 9.11333 5.13602C9.92366 5.53056 10.7404 5.91173 11.5633 6.27935C12.3538 6.63601 13.156 6.96597 13.9687 7.26868C14.3313 7.40002 14.682 7.51602 15 7.60202V15.0487C13.53 14.7493 11.6307 13.9447 10.4467 13.4007ZM13.5533 17.098C13.758 17.192 13.946 17.3133 14.1107 17.4567C13.2882 17.8579 12.4592 18.2455 11.624 18.6193C10.8762 18.9567 10.1174 19.2689 9.34867 19.5553C9.00267 19.6807 8.69867 19.78 8.45 19.846C8.18333 19.9167 8.04333 19.9327 8 19.9327C7.95667 19.9327 7.81667 19.9167 7.55067 19.846C7.30133 19.7793 6.99733 19.6807 6.65133 19.5553C5.88286 19.2689 5.12421 18.9567 4.37667 18.6193C3.54102 18.2464 2.712 17.8588 1.89 17.4567C2.05533 17.3127 2.24111 17.1931 2.44733 17.098C3.92467 16.4187 6.51933 15.3327 8 15.3327C9.48 15.3327 12.0753 16.4193 13.5533 17.098ZM9 29.2153V21.7687C9.34815 21.6716 9.69222 21.5604 10.0313 21.4353C10.844 21.1326 11.6462 20.8027 12.4367 20.446C13.2597 20.0787 14.0765 19.6976 14.8867 19.3027C14.9487 20.0427 15 21.0433 15 22.3327C15 23.9047 14.924 25.048 14.8447 25.8127C14.7633 26.5927 14.2647 27.24 13.5533 27.5673C12.3693 28.1113 10.47 28.916 9 29.2153ZM2.44667 27.5673C1.73533 27.2407 1.23667 26.592 1.15533 25.8127C1.076 25.048 1 23.9047 1 22.3327C1 21.044 1.05133 20.0433 1.11333 19.3027C1.9236 19.6976 2.74038 20.0789 3.56333 20.4467C4.3538 20.8031 5.15603 21.1329 5.96867 21.4353C6.33133 21.5667 6.682 21.6827 7 21.7687V29.2153C5.53 28.916 3.63067 28.1113 2.44667 27.5673ZM30.1107 17.4567C29.9429 17.3112 29.7552 17.1904 29.5533 17.098C28.0753 16.4187 25.48 15.3327 24 15.3327C22.52 15.3327 19.9247 16.4193 18.4467 17.098C18.2448 17.1904 18.0571 17.3112 17.8893 17.4567C18.7118 17.8579 19.5408 18.2455 20.376 18.6193C21.1238 18.9567 21.8826 19.2689 22.6513 19.5553C22.9973 19.6807 23.3013 19.78 23.55 19.846C23.8167 19.9167 23.9567 19.9327 24 19.9327C24.0433 19.9327 24.1833 19.9167 24.45 19.846C24.6987 19.7793 25.0033 19.6807 25.3487 19.5553C26.1171 19.2689 26.8758 18.9567 27.6233 18.6193C28.459 18.2464 29.2887 17.8588 30.1107 17.4567ZM25 21.768V29.2147C26.47 28.9153 28.3693 28.1107 29.5533 27.5667C30.2647 27.24 30.7633 26.5913 30.8447 25.812C30.924 25.0473 31 23.904 31 22.332C31.004 21.3209 30.9662 20.31 30.8867 19.302C30.0766 19.6972 29.2598 20.0786 28.4367 20.446C27.6462 20.8024 26.844 21.1322 26.0313 21.4347C25.6687 21.566 25.318 21.6827 25 21.768ZM17.1553 25.8127C17.2367 26.5927 17.7353 27.24 18.4467 27.5673C19.6307 28.1113 21.53 28.916 23 29.2153V21.7687C22.6518 21.6716 22.3078 21.5604 21.9687 21.4353C21.156 21.1326 20.3538 20.8027 19.5633 20.446C18.7403 20.0787 17.9235 19.6976 17.1133 19.3027C17.0338 20.3107 16.996 21.3216 17 22.3327C17 23.9047 17.076 25.048 17.1553 25.8127Z" fill="#59FF06"/>
</svg>
