<svg width="32" height="32" viewBox="0 0 32 32" fill="none" xmlns="http://www.w3.org/2000/svg">
<g clip-path="url(#clip0_847_31)">
<path fill-rule="evenodd" clip-rule="evenodd" d="M29.5269 3.70971C29.5269 4.19688 29.4309 4.67928 29.2445 5.12936C29.058 5.57944 28.7848 5.9884 28.4403 6.33288C28.0958 6.67736 27.6869 6.95061 27.2368 7.13704C26.7867 7.32347 26.3043 7.41943 25.8171 7.41943C25.33 7.41943 24.8476 7.32347 24.3975 7.13704C23.9474 6.95061 23.5385 6.67736 23.194 6.33288C22.8495 5.9884 22.5762 5.57944 22.3898 5.12936C22.2034 4.67928 22.1074 4.19688 22.1074 3.70971C22.1074 2.72584 22.4983 1.78226 23.194 1.08655C23.8897 0.390844 24.8333 0 25.8171 0C26.801 0 27.7446 0.390844 28.4403 1.08655C29.136 1.78226 29.5269 2.72584 29.5269 3.70971ZM31.8674 15.2229C31.7822 15.603 31.5701 15.9428 31.266 16.1863C30.9619 16.4297 30.5839 16.5624 30.1943 16.5623H16.224C15.7693 16.5623 15.3333 16.3817 15.0118 16.0602C14.6903 15.7387 14.5097 15.3027 14.5097 14.848C14.5097 14.3933 14.6903 13.9573 15.0118 13.6358C15.3333 13.3143 15.7693 13.1337 16.224 13.1337H19.872C20.2849 11.7022 21.2006 10.4679 22.4509 9.65755C23.7011 8.84725 25.2018 8.51545 26.6771 8.72315C28.1524 8.93085 29.5032 9.66409 30.4811 10.7881C31.459 11.9121 31.9984 13.3513 32 14.8411C31.9999 14.9797 31.9532 15.1141 31.8674 15.2229ZM3.10629 7.59771C3.10629 8.69556 3.5424 9.74844 4.3187 10.5247C5.09499 11.301 6.14787 11.7371 7.24571 11.7371C8.34356 11.7371 9.39644 11.301 10.1727 10.5247C10.949 9.74844 11.3851 8.69556 11.3851 7.59771C11.3851 6.49987 10.949 5.44699 10.1727 4.6707C9.39644 3.8944 8.34356 3.45829 7.24571 3.45829C6.14787 3.45829 5.09499 3.8944 4.3187 4.6707C3.5424 5.44699 3.10629 6.49987 3.10629 7.59771ZM0 20.6149C-1.41788e-08 19.6633 0.187416 18.7211 0.551547 17.842C0.915678 16.963 1.44939 16.1642 2.12222 15.4914C2.79505 14.8185 3.59381 14.2848 4.4729 13.9207C5.35199 13.5566 6.29419 13.3691 7.24571 13.3691C8.19724 13.3691 9.13944 13.5566 10.0185 13.9207C10.8976 14.2848 11.6964 14.8185 12.3692 15.4914C13.042 16.1642 13.5758 16.963 13.9399 17.842C14.304 18.7211 14.4914 19.6633 14.4914 20.6149V22.576C14.4914 22.8791 14.371 23.1698 14.1567 23.3841C13.9424 23.5985 13.6517 23.7189 13.3486 23.7189H11.3829L10.4731 30.9989C10.4386 31.2752 10.3043 31.5294 10.0956 31.7138C9.88683 31.8981 9.61793 31.9999 9.33943 32H5.14971C4.87121 31.9999 4.60232 31.8981 4.39356 31.7138C4.18479 31.5294 4.05053 31.2752 4.016 30.9989L3.104 23.7189H1.14286C0.839753 23.7189 0.549062 23.5985 0.334735 23.3841C0.120408 23.1698 0 22.8791 0 22.576V20.6149Z" fill="#59FF06"/>
</g>
<defs>
<clipPath id="clip0_847_31">
<rect width="32" height="32" fill="white"/>
</clipPath>
</defs>
</svg>
