<svg width="32" height="32" viewBox="0 0 32 32" fill="none" xmlns="http://www.w3.org/2000/svg">
<path d="M13.3346 5.33398C16.268 5.33398 18.668 7.73398 18.668 10.6673C18.668 13.6007 16.268 16.0007 13.3346 16.0007C10.4013 16.0007 8.0013 13.6007 8.0013 10.6673C8.0013 7.73398 10.4013 5.33398 13.3346 5.33398ZM22.668 28.0007L25.068 30.3607C25.7346 31.0273 26.668 30.494 26.668 29.7073V24.0007L30.4013 19.4673C30.5499 19.2692 30.6403 19.0337 30.6626 18.7871C30.6848 18.5404 30.6379 18.2925 30.5272 18.071C30.4165 17.8496 30.2462 17.6633 30.0356 17.5331C29.825 17.4029 29.5822 17.334 29.3346 17.334H20.0013C18.9346 17.334 18.268 18.6673 18.9346 19.4673L22.668 24.0007V28.0007ZM20.0013 24.934L16.9346 21.2007C16.4013 20.534 16.1346 19.734 16.1346 18.934C15.2013 18.6673 14.268 18.6673 13.3346 18.6673C7.46797 18.6673 2.66797 21.0673 2.66797 24.0007V26.6673H20.0013V24.934Z" fill="#59FF06"/>
</svg>
